<svg xmlns="http://www.w3.org/2000/svg" version="1.2" baseProfile="tiny-ps" viewBox="100 239.8 801.9 521.9" preserveAspectRatio="xMidYMid meet"><title>myndstack</title><g transform="translate(100.00,239.80) scale(1.3378)" fill="#0A0A0B"><g transform="translate(-183.681425,661.150681) scale(0.100000,-0.100000)"><path d="M2080 5865 l0 -745 150 0 150 0 0 421 c0 250 4 418 9 415 5 -4 82 -132 172 -286 l162 -281 95 3 95 3 166 286 166 287 3 -424 2 -424 150 0 150 0 0 745 0 746 -136 -3 -137 -3 -226 -397 c-124 -219 -230 -397 -236 -395 -5 2 -110 182 -234 400 l-226 397 -137 0 -138 0 0 -745z"></path><path d="M3664 6458 c51 -84 166 -271 255 -416 l161 -263 0 -329 0 -330 150 0 150 0 0 327 0 326 255 413 c140 227 255 415 255 418 0 3 -78 6 -172 6 l-173 -1 -154 -259 c-85 -142 -158 -257 -161 -255 -4 2 -76 119 -160 260 l-153 255 -173 0 -174 0 94 -152z"></path><path d="M4910 5865 l0 -745 150 0 150 0 2 467 3 467 230 -323 c127 -179 275 -388 330 -465 l101 -141 137 -3 137 -3 0 746 0 745 -150 0 -150 0 0 -467 c0 -374 -3 -465 -12 -455 -7 7 -157 216 -334 465 l-320 452 -137 3 -137 3 0 -746z"></path><path d="M6360 5866 l0 -746 280 0 c217 0 298 4 358 16 475 97 735 614 527 1049 -71 149 -201 279 -349 350 -136 64 -159 68 -503 72 l-313 5 0 -746z m588 439 c308 -73 451 -421 282 -685 -95 -148 -249 -215 -480 -208 l-95 3 -3 440 c-1 242 0 446 3 453 6 18 213 16 293 -3z"></path><path d="M2303 4219 c-268 -45 -440 -280 -379 -519 41 -161 142 -247 416 -355 252 -100 280 -120 280 -206 0 -93 -79 -144 -220 -142 -117 2 -238 63 -313 159 -23 29 -46 53 -52 53 -5 0 -32 -28 -60 -62 -27 -33 -70 -85 -94 -114 l-44 -54 39 -40 c100 -104 246 -188 372 -215 80 -16 231 -18 304 -3 134 28 276 127 328 230 67 131 65 308 -5 418 -63 101 -150 155 -419 261 -190 76 -236 110 -236 179 0 35 6 49 33 76 88 88 254 65 414 -57 34 -27 64 -48 67 -48 6 0 165 207 172 224 10 27 -151 135 -266 176 -73 27 -202 51 -258 49 -15 -1 -50 -5 -79 -10z"></path><path d="M5821 4219 c-86 -13 -222 -65 -296 -114 -77 -50 -190 -166 -234 -238 -74 -125 -111 -256 -111 -400 0 -120 22 -213 82 -336 43 -90 61 -115 136 -190 91 -89 159 -136 262 -178 247 -99 554 -50 763 122 59 49 137 137 137 155 0 7 -225 160 -234 160 -3 0 -28 -25 -57 -55 -173 -183 -463 -187 -650 -8 -299 285 -97 793 317 793 143 0 275 -60 360 -163 l30 -37 118 81 c64 45 115 86 113 92 -8 24 -106 126 -162 169 -158 120 -378 177 -574 147z"></path><path d="M2920 4070 l0 -140 205 0 205 0 0 -605 0 -605 150 0 150 0 0 605 0 605 205 0 205 0 0 140 0 140 -560 0 -560 0 0 -140z"></path><path d="M4415 4198 c-3 -7 -126 -332 -273 -723 -148 -390 -273 -720 -276 -733 l-8 -23 158 3 157 3 179 490 c98 270 183 501 189 515 12 26 -2 60 309 -788 43 -117 80 -215 83 -218 2 -2 74 -3 158 -2 l155 3 -282 740 -281 740 -132 3 c-100 2 -133 -1 -136 -10z"></path><path d="M6630 3465 l0 -745 145 0 145 0 0 208 0 208 381 450 c210 247 415 488 456 537 l74 87 -189 0 -189 0 -257 -310 c-142 -170 -261 -310 -267 -310 -5 0 -9 123 -9 310 l0 310 -145 0 -145 0 0 -745z"></path><path d="M4433 2905 c62 -96 115 -174 118 -175 4 0 51 69 105 153 53 83 104 162 112 175 l14 22 -230 0 -231 0 112 -175z"></path><path d="M7221 3060 c8 -11 66 -92 129 -179 l115 -160 183 -1 c101 0 182 4 180 8 -1 5 -59 86 -128 180 l-125 172 -184 0 c-181 0 -183 0 -170 -20z"></path></g></g></svg>